<mxfile host="Electron" modified="2023-11-03T14:27:03.578Z" agent="Mozilla/5.0 (Windows NT 10.0; Win64; x64) AppleWebKit/537.36 (KHTML, like Gecko) draw.io/22.0.3 Chrome/114.0.5735.289 Electron/25.8.4 Safari/537.36" etag="C1z1qaJ3yCVc4X4m6CFX" version="22.0.3" type="device">
  <diagram name="Página-1" id="79Hxp_-KR0Ry7J9lvNVE">
    <mxGraphModel dx="2591" dy="1153" grid="1" gridSize="10" guides="1" tooltips="1" connect="1" arrows="1" fold="1" page="1" pageScale="1" pageWidth="827" pageHeight="1169" math="0" shadow="0">
      <root>
        <mxCell id="0" />
        <mxCell id="1" parent="0" />
        <mxCell id="xWgYPLhg4K4X3F8JjkMR-10" style="rounded=0;orthogonalLoop=1;jettySize=auto;html=1;entryX=0;entryY=0.5;entryDx=0;entryDy=0;endArrow=none;endFill=0;exitX=1;exitY=0.3333333333333333;exitDx=0;exitDy=0;exitPerimeter=0;" parent="1" source="xWgYPLhg4K4X3F8JjkMR-1" target="xWgYPLhg4K4X3F8JjkMR-6" edge="1">
          <mxGeometry relative="1" as="geometry" />
        </mxCell>
        <mxCell id="xWgYPLhg4K4X3F8JjkMR-1" value="Utilizador" style="shape=umlActor;verticalLabelPosition=bottom;verticalAlign=top;html=1;outlineConnect=0;" parent="1" vertex="1">
          <mxGeometry x="64" y="760" width="40" height="80" as="geometry" />
        </mxCell>
        <mxCell id="xWgYPLhg4K4X3F8JjkMR-3" value="Inventory Tracking" style="shape=umlFrame;whiteSpace=wrap;html=1;pointerEvents=0;recursiveResize=0;container=1;collapsible=0;width=160;" parent="1" vertex="1">
          <mxGeometry x="160" y="110" width="640" height="1040" as="geometry" />
        </mxCell>
        <mxCell id="xWgYPLhg4K4X3F8JjkMR-21" style="rounded=0;orthogonalLoop=1;jettySize=auto;html=1;exitX=0;exitY=0.5;exitDx=0;exitDy=0;entryX=1;entryY=0.5;entryDx=0;entryDy=0;dashed=1;endArrow=open;endFill=0;startSize=10;endSize=10;" parent="xWgYPLhg4K4X3F8JjkMR-3" source="xWgYPLhg4K4X3F8JjkMR-14" target="xWgYPLhg4K4X3F8JjkMR-6" edge="1">
          <mxGeometry relative="1" as="geometry" />
        </mxCell>
        <mxCell id="xWgYPLhg4K4X3F8JjkMR-23" value="&amp;lt;&amp;lt;extend&amp;gt;&amp;gt;" style="edgeLabel;html=1;align=center;verticalAlign=middle;resizable=0;points=[];" parent="xWgYPLhg4K4X3F8JjkMR-21" vertex="1" connectable="0">
          <mxGeometry x="-0.072" y="-2" relative="1" as="geometry">
            <mxPoint as="offset" />
          </mxGeometry>
        </mxCell>
        <mxCell id="xWgYPLhg4K4X3F8JjkMR-6" value="Ver Artigos" style="ellipse;whiteSpace=wrap;html=1;" parent="xWgYPLhg4K4X3F8JjkMR-3" vertex="1">
          <mxGeometry x="84" y="250" width="160" height="60" as="geometry" />
        </mxCell>
        <mxCell id="xWgYPLhg4K4X3F8JjkMR-7" value="Pesquisar Artigos" style="ellipse;whiteSpace=wrap;html=1;" parent="xWgYPLhg4K4X3F8JjkMR-3" vertex="1">
          <mxGeometry x="84" y="330" width="160" height="60" as="geometry" />
        </mxCell>
        <mxCell id="xWgYPLhg4K4X3F8JjkMR-8" value="Ver Categorias" style="ellipse;whiteSpace=wrap;html=1;" parent="xWgYPLhg4K4X3F8JjkMR-3" vertex="1">
          <mxGeometry x="84" y="530" width="160" height="60" as="geometry" />
        </mxCell>
        <mxCell id="xWgYPLhg4K4X3F8JjkMR-9" value="Adicionar Artigo" style="ellipse;whiteSpace=wrap;html=1;" parent="xWgYPLhg4K4X3F8JjkMR-3" vertex="1">
          <mxGeometry x="84" y="410" width="160" height="60" as="geometry" />
        </mxCell>
        <mxCell id="xWgYPLhg4K4X3F8JjkMR-14" value="Atualizar Artigo" style="ellipse;whiteSpace=wrap;html=1;" parent="xWgYPLhg4K4X3F8JjkMR-3" vertex="1">
          <mxGeometry x="444" y="230" width="160" height="60" as="geometry" />
        </mxCell>
        <mxCell id="xWgYPLhg4K4X3F8JjkMR-19" value="Apagar Artigo" style="ellipse;whiteSpace=wrap;html=1;" parent="xWgYPLhg4K4X3F8JjkMR-3" vertex="1">
          <mxGeometry x="444" y="350" width="160" height="60" as="geometry" />
        </mxCell>
        <mxCell id="xWgYPLhg4K4X3F8JjkMR-20" value="Apagar Categoria" style="ellipse;whiteSpace=wrap;html=1;" parent="xWgYPLhg4K4X3F8JjkMR-3" vertex="1">
          <mxGeometry x="444" y="570" width="160" height="60" as="geometry" />
        </mxCell>
        <mxCell id="xWgYPLhg4K4X3F8JjkMR-24" style="rounded=0;orthogonalLoop=1;jettySize=auto;html=1;exitX=0;exitY=0.5;exitDx=0;exitDy=0;entryX=1;entryY=0;entryDx=0;entryDy=0;dashed=1;endArrow=open;endFill=0;startSize=10;endSize=10;" parent="xWgYPLhg4K4X3F8JjkMR-3" source="xWgYPLhg4K4X3F8JjkMR-14" target="xWgYPLhg4K4X3F8JjkMR-7" edge="1">
          <mxGeometry relative="1" as="geometry">
            <mxPoint x="314" y="440" as="sourcePoint" />
            <mxPoint x="234" y="380" as="targetPoint" />
          </mxGeometry>
        </mxCell>
        <mxCell id="xWgYPLhg4K4X3F8JjkMR-25" value="&amp;lt;&amp;lt;extend&amp;gt;&amp;gt;" style="edgeLabel;html=1;align=center;verticalAlign=middle;resizable=0;points=[];" parent="xWgYPLhg4K4X3F8JjkMR-24" vertex="1" connectable="0">
          <mxGeometry x="-0.072" y="-2" relative="1" as="geometry">
            <mxPoint as="offset" />
          </mxGeometry>
        </mxCell>
        <mxCell id="xWgYPLhg4K4X3F8JjkMR-26" style="rounded=0;orthogonalLoop=1;jettySize=auto;html=1;exitX=0;exitY=0.5;exitDx=0;exitDy=0;entryX=1;entryY=1;entryDx=0;entryDy=0;dashed=1;endArrow=open;endFill=0;startSize=10;endSize=10;" parent="xWgYPLhg4K4X3F8JjkMR-3" source="xWgYPLhg4K4X3F8JjkMR-19" target="xWgYPLhg4K4X3F8JjkMR-6" edge="1">
          <mxGeometry relative="1" as="geometry">
            <mxPoint x="324" y="320" as="sourcePoint" />
            <mxPoint x="244" y="440" as="targetPoint" />
          </mxGeometry>
        </mxCell>
        <mxCell id="xWgYPLhg4K4X3F8JjkMR-27" value="&amp;lt;&amp;lt;extend&amp;gt;&amp;gt;" style="edgeLabel;html=1;align=center;verticalAlign=middle;resizable=0;points=[];" parent="xWgYPLhg4K4X3F8JjkMR-26" vertex="1" connectable="0">
          <mxGeometry x="-0.072" y="-2" relative="1" as="geometry">
            <mxPoint as="offset" />
          </mxGeometry>
        </mxCell>
        <mxCell id="xWgYPLhg4K4X3F8JjkMR-28" style="rounded=0;orthogonalLoop=1;jettySize=auto;html=1;exitX=0;exitY=0.5;exitDx=0;exitDy=0;entryX=1;entryY=0.5;entryDx=0;entryDy=0;dashed=1;endArrow=open;endFill=0;startSize=10;endSize=10;" parent="xWgYPLhg4K4X3F8JjkMR-3" source="xWgYPLhg4K4X3F8JjkMR-19" target="xWgYPLhg4K4X3F8JjkMR-7" edge="1">
          <mxGeometry relative="1" as="geometry">
            <mxPoint x="324" y="440" as="sourcePoint" />
            <mxPoint x="244" y="320" as="targetPoint" />
          </mxGeometry>
        </mxCell>
        <mxCell id="xWgYPLhg4K4X3F8JjkMR-29" value="&amp;lt;&amp;lt;extend&amp;gt;&amp;gt;" style="edgeLabel;html=1;align=center;verticalAlign=middle;resizable=0;points=[];" parent="xWgYPLhg4K4X3F8JjkMR-28" vertex="1" connectable="0">
          <mxGeometry x="-0.072" y="-2" relative="1" as="geometry">
            <mxPoint as="offset" />
          </mxGeometry>
        </mxCell>
        <mxCell id="xWgYPLhg4K4X3F8JjkMR-30" value="Atualizar Categoria" style="ellipse;whiteSpace=wrap;html=1;" parent="xWgYPLhg4K4X3F8JjkMR-3" vertex="1">
          <mxGeometry x="444" y="490" width="160" height="60" as="geometry" />
        </mxCell>
        <mxCell id="xWgYPLhg4K4X3F8JjkMR-35" style="rounded=0;orthogonalLoop=1;jettySize=auto;html=1;exitX=0;exitY=0.5;exitDx=0;exitDy=0;entryX=1;entryY=1;entryDx=0;entryDy=0;dashed=1;endArrow=open;endFill=0;startSize=10;endSize=10;" parent="xWgYPLhg4K4X3F8JjkMR-3" source="xWgYPLhg4K4X3F8JjkMR-20" target="xWgYPLhg4K4X3F8JjkMR-8" edge="1">
          <mxGeometry relative="1" as="geometry">
            <mxPoint x="325.5" y="612" as="sourcePoint" />
            <mxPoint x="222.5" y="520" as="targetPoint" />
          </mxGeometry>
        </mxCell>
        <mxCell id="xWgYPLhg4K4X3F8JjkMR-36" value="&amp;lt;&amp;lt;extend&amp;gt;&amp;gt;" style="edgeLabel;html=1;align=center;verticalAlign=middle;resizable=0;points=[];" parent="xWgYPLhg4K4X3F8JjkMR-35" vertex="1" connectable="0">
          <mxGeometry x="-0.072" y="-2" relative="1" as="geometry">
            <mxPoint as="offset" />
          </mxGeometry>
        </mxCell>
        <mxCell id="xWgYPLhg4K4X3F8JjkMR-37" style="rounded=0;orthogonalLoop=1;jettySize=auto;html=1;exitX=0;exitY=0.5;exitDx=0;exitDy=0;entryX=1;entryY=0;entryDx=0;entryDy=0;dashed=1;endArrow=open;endFill=0;startSize=10;endSize=10;" parent="xWgYPLhg4K4X3F8JjkMR-3" source="xWgYPLhg4K4X3F8JjkMR-30" target="xWgYPLhg4K4X3F8JjkMR-8" edge="1">
          <mxGeometry relative="1" as="geometry">
            <mxPoint x="324" y="680" as="sourcePoint" />
            <mxPoint x="244" y="680" as="targetPoint" />
          </mxGeometry>
        </mxCell>
        <mxCell id="xWgYPLhg4K4X3F8JjkMR-38" value="&amp;lt;&amp;lt;extend&amp;gt;&amp;gt;" style="edgeLabel;html=1;align=center;verticalAlign=middle;resizable=0;points=[];" parent="xWgYPLhg4K4X3F8JjkMR-37" vertex="1" connectable="0">
          <mxGeometry x="-0.072" y="-2" relative="1" as="geometry">
            <mxPoint as="offset" />
          </mxGeometry>
        </mxCell>
        <mxCell id="xWgYPLhg4K4X3F8JjkMR-69" value="Ver Resumo do Inventário por Categorias" style="ellipse;whiteSpace=wrap;html=1;" parent="xWgYPLhg4K4X3F8JjkMR-3" vertex="1">
          <mxGeometry x="84" y="720" width="160" height="80" as="geometry" />
        </mxCell>
        <mxCell id="7ApWwWHMCVWSrzH3Z17Y-8" value="Mudar o Tema de Cores da Página" style="ellipse;whiteSpace=wrap;html=1;" vertex="1" parent="xWgYPLhg4K4X3F8JjkMR-3">
          <mxGeometry x="84" y="830" width="160" height="60" as="geometry" />
        </mxCell>
        <mxCell id="7ApWwWHMCVWSrzH3Z17Y-10" value="Voltar ao Topo da Página" style="ellipse;whiteSpace=wrap;html=1;" vertex="1" parent="xWgYPLhg4K4X3F8JjkMR-3">
          <mxGeometry x="84" y="900" width="160" height="60" as="geometry" />
        </mxCell>
        <mxCell id="7ApWwWHMCVWSrzH3Z17Y-40" value="Fazer Login" style="ellipse;whiteSpace=wrap;html=1;" vertex="1" parent="xWgYPLhg4K4X3F8JjkMR-3">
          <mxGeometry x="84" y="130" width="160" height="60" as="geometry" />
        </mxCell>
        <mxCell id="7ApWwWHMCVWSrzH3Z17Y-44" value="Fazer Registo" style="ellipse;whiteSpace=wrap;html=1;" vertex="1" parent="xWgYPLhg4K4X3F8JjkMR-3">
          <mxGeometry x="84" y="50" width="160" height="60" as="geometry" />
        </mxCell>
        <mxCell id="7ApWwWHMCVWSrzH3Z17Y-46" value="Recuperar Password" style="ellipse;whiteSpace=wrap;html=1;" vertex="1" parent="xWgYPLhg4K4X3F8JjkMR-3">
          <mxGeometry x="444" y="130" width="160" height="60" as="geometry" />
        </mxCell>
        <mxCell id="7ApWwWHMCVWSrzH3Z17Y-47" style="rounded=0;orthogonalLoop=1;jettySize=auto;html=1;exitX=0;exitY=0.5;exitDx=0;exitDy=0;entryX=1;entryY=0.5;entryDx=0;entryDy=0;dashed=1;endArrow=open;endFill=0;startSize=10;endSize=10;" edge="1" parent="xWgYPLhg4K4X3F8JjkMR-3" source="7ApWwWHMCVWSrzH3Z17Y-46" target="7ApWwWHMCVWSrzH3Z17Y-40">
          <mxGeometry relative="1" as="geometry">
            <mxPoint x="314" y="209.55" as="sourcePoint" />
            <mxPoint x="234" y="209.55" as="targetPoint" />
          </mxGeometry>
        </mxCell>
        <mxCell id="7ApWwWHMCVWSrzH3Z17Y-49" value="&amp;lt;&amp;lt;extend&amp;gt;&amp;gt;" style="edgeLabel;html=1;align=center;verticalAlign=middle;resizable=0;points=[];" vertex="1" connectable="0" parent="7ApWwWHMCVWSrzH3Z17Y-47">
          <mxGeometry x="0.1189" relative="1" as="geometry">
            <mxPoint x="18" as="offset" />
          </mxGeometry>
        </mxCell>
        <mxCell id="7ApWwWHMCVWSrzH3Z17Y-69" value="Fazer Logout" style="ellipse;whiteSpace=wrap;html=1;" vertex="1" parent="xWgYPLhg4K4X3F8JjkMR-3">
          <mxGeometry x="84" y="970" width="160" height="60" as="geometry" />
        </mxCell>
        <mxCell id="7ApWwWHMCVWSrzH3Z17Y-71" value="Adicionar Categoria" style="ellipse;whiteSpace=wrap;html=1;" vertex="1" parent="xWgYPLhg4K4X3F8JjkMR-3">
          <mxGeometry x="84" y="610" width="160" height="60" as="geometry" />
        </mxCell>
        <mxCell id="xWgYPLhg4K4X3F8JjkMR-11" style="rounded=0;orthogonalLoop=1;jettySize=auto;html=1;entryX=0;entryY=0.5;entryDx=0;entryDy=0;endArrow=none;endFill=0;exitX=1;exitY=0.3333333333333333;exitDx=0;exitDy=0;exitPerimeter=0;" parent="1" source="xWgYPLhg4K4X3F8JjkMR-1" target="xWgYPLhg4K4X3F8JjkMR-7" edge="1">
          <mxGeometry relative="1" as="geometry">
            <mxPoint x="204" y="577" as="sourcePoint" />
            <mxPoint x="324" y="430" as="targetPoint" />
          </mxGeometry>
        </mxCell>
        <mxCell id="xWgYPLhg4K4X3F8JjkMR-12" style="rounded=0;orthogonalLoop=1;jettySize=auto;html=1;entryX=0;entryY=0.5;entryDx=0;entryDy=0;endArrow=none;endFill=0;exitX=1;exitY=0.3333333333333333;exitDx=0;exitDy=0;exitPerimeter=0;" parent="1" source="xWgYPLhg4K4X3F8JjkMR-1" target="xWgYPLhg4K4X3F8JjkMR-9" edge="1">
          <mxGeometry relative="1" as="geometry">
            <mxPoint x="194" y="570" as="sourcePoint" />
            <mxPoint x="324" y="550" as="targetPoint" />
          </mxGeometry>
        </mxCell>
        <mxCell id="xWgYPLhg4K4X3F8JjkMR-13" style="rounded=0;orthogonalLoop=1;jettySize=auto;html=1;entryX=0;entryY=0.5;entryDx=0;entryDy=0;endArrow=none;endFill=0;exitX=1;exitY=0.3333333333333333;exitDx=0;exitDy=0;exitPerimeter=0;" parent="1" source="xWgYPLhg4K4X3F8JjkMR-1" target="xWgYPLhg4K4X3F8JjkMR-8" edge="1">
          <mxGeometry relative="1" as="geometry">
            <mxPoint x="204" y="610" as="sourcePoint" />
            <mxPoint x="324" y="670" as="targetPoint" />
          </mxGeometry>
        </mxCell>
        <mxCell id="xWgYPLhg4K4X3F8JjkMR-39" value="Levantamento de Requisitos Funcionais" style="swimlane;fontStyle=0;childLayout=stackLayout;horizontal=1;startSize=30;horizontalStack=0;resizeParent=1;resizeParentMax=0;resizeLast=0;collapsible=1;marginBottom=0;whiteSpace=wrap;html=1;" parent="1" vertex="1">
          <mxGeometry x="-760" y="200" width="680" height="510" as="geometry" />
        </mxCell>
        <mxCell id="7ApWwWHMCVWSrzH3Z17Y-43" value="O visitante pode fazer o registo no site" style="text;strokeColor=none;fillColor=none;align=left;verticalAlign=middle;spacingLeft=4;spacingRight=4;overflow=hidden;points=[[0,0.5],[1,0.5]];portConstraint=eastwest;rotatable=0;whiteSpace=wrap;html=1;" vertex="1" parent="xWgYPLhg4K4X3F8JjkMR-39">
          <mxGeometry y="30" width="680" height="30" as="geometry" />
        </mxCell>
        <mxCell id="7ApWwWHMCVWSrzH3Z17Y-52" value="O visitante&amp;nbsp;pode fazer login no site" style="text;strokeColor=none;fillColor=none;align=left;verticalAlign=middle;spacingLeft=4;spacingRight=4;overflow=hidden;points=[[0,0.5],[1,0.5]];portConstraint=eastwest;rotatable=0;whiteSpace=wrap;html=1;" vertex="1" parent="xWgYPLhg4K4X3F8JjkMR-39">
          <mxGeometry y="60" width="680" height="30" as="geometry" />
        </mxCell>
        <mxCell id="7ApWwWHMCVWSrzH3Z17Y-51" value="O visitante&amp;nbsp;pode recuperar a password" style="text;strokeColor=none;fillColor=none;align=left;verticalAlign=middle;spacingLeft=4;spacingRight=4;overflow=hidden;points=[[0,0.5],[1,0.5]];portConstraint=eastwest;rotatable=0;whiteSpace=wrap;html=1;" vertex="1" parent="xWgYPLhg4K4X3F8JjkMR-39">
          <mxGeometry y="90" width="680" height="30" as="geometry" />
        </mxCell>
        <mxCell id="xWgYPLhg4K4X3F8JjkMR-40" value="O utilizador pode ver os artigos do inventário&amp;nbsp;" style="text;strokeColor=none;fillColor=none;align=left;verticalAlign=middle;spacingLeft=4;spacingRight=4;overflow=hidden;points=[[0,0.5],[1,0.5]];portConstraint=eastwest;rotatable=0;whiteSpace=wrap;html=1;" parent="xWgYPLhg4K4X3F8JjkMR-39" vertex="1">
          <mxGeometry y="120" width="680" height="30" as="geometry" />
        </mxCell>
        <mxCell id="xWgYPLhg4K4X3F8JjkMR-41" value="O utilizador pode pesquisar os artigos do inventário (categoria, nome)" style="text;strokeColor=none;fillColor=none;align=left;verticalAlign=middle;spacingLeft=4;spacingRight=4;overflow=hidden;points=[[0,0.5],[1,0.5]];portConstraint=eastwest;rotatable=0;whiteSpace=wrap;html=1;" parent="xWgYPLhg4K4X3F8JjkMR-39" vertex="1">
          <mxGeometry y="150" width="680" height="30" as="geometry" />
        </mxCell>
        <mxCell id="xWgYPLhg4K4X3F8JjkMR-42" value="O utilizador pode adicionar um artigo ao inventário" style="text;strokeColor=none;fillColor=none;align=left;verticalAlign=middle;spacingLeft=4;spacingRight=4;overflow=hidden;points=[[0,0.5],[1,0.5]];portConstraint=eastwest;rotatable=0;whiteSpace=wrap;html=1;" parent="xWgYPLhg4K4X3F8JjkMR-39" vertex="1">
          <mxGeometry y="180" width="680" height="30" as="geometry" />
        </mxCell>
        <mxCell id="xWgYPLhg4K4X3F8JjkMR-43" value="O utilizador pode atualizar um artigo do inventário" style="text;strokeColor=none;fillColor=none;align=left;verticalAlign=middle;spacingLeft=4;spacingRight=4;overflow=hidden;points=[[0,0.5],[1,0.5]];portConstraint=eastwest;rotatable=0;whiteSpace=wrap;html=1;" parent="xWgYPLhg4K4X3F8JjkMR-39" vertex="1">
          <mxGeometry y="210" width="680" height="30" as="geometry" />
        </mxCell>
        <mxCell id="xWgYPLhg4K4X3F8JjkMR-44" value="O utilizador pode apagar um artigo do inventário" style="text;strokeColor=none;fillColor=none;align=left;verticalAlign=middle;spacingLeft=4;spacingRight=4;overflow=hidden;points=[[0,0.5],[1,0.5]];portConstraint=eastwest;rotatable=0;whiteSpace=wrap;html=1;" parent="xWgYPLhg4K4X3F8JjkMR-39" vertex="1">
          <mxGeometry y="240" width="680" height="30" as="geometry" />
        </mxCell>
        <mxCell id="xWgYPLhg4K4X3F8JjkMR-45" value="O utilizador pode ver as categorias do inventário" style="text;strokeColor=none;fillColor=none;align=left;verticalAlign=middle;spacingLeft=4;spacingRight=4;overflow=hidden;points=[[0,0.5],[1,0.5]];portConstraint=eastwest;rotatable=0;whiteSpace=wrap;html=1;" parent="xWgYPLhg4K4X3F8JjkMR-39" vertex="1">
          <mxGeometry y="270" width="680" height="30" as="geometry" />
        </mxCell>
        <mxCell id="7ApWwWHMCVWSrzH3Z17Y-72" value="O utilizador pode adicionar uma categoria ao inventário" style="text;strokeColor=none;fillColor=none;align=left;verticalAlign=middle;spacingLeft=4;spacingRight=4;overflow=hidden;points=[[0,0.5],[1,0.5]];portConstraint=eastwest;rotatable=0;whiteSpace=wrap;html=1;" vertex="1" parent="xWgYPLhg4K4X3F8JjkMR-39">
          <mxGeometry y="300" width="680" height="30" as="geometry" />
        </mxCell>
        <mxCell id="xWgYPLhg4K4X3F8JjkMR-46" value="O utilizador pode atualizar uma categoria do inventário" style="text;strokeColor=none;fillColor=none;align=left;verticalAlign=middle;spacingLeft=4;spacingRight=4;overflow=hidden;points=[[0,0.5],[1,0.5]];portConstraint=eastwest;rotatable=0;whiteSpace=wrap;html=1;" parent="xWgYPLhg4K4X3F8JjkMR-39" vertex="1">
          <mxGeometry y="330" width="680" height="30" as="geometry" />
        </mxCell>
        <mxCell id="xWgYPLhg4K4X3F8JjkMR-47" value="O utilizador pode apagar uma categoria do inventário" style="text;strokeColor=none;fillColor=none;align=left;verticalAlign=middle;spacingLeft=4;spacingRight=4;overflow=hidden;points=[[0,0.5],[1,0.5]];portConstraint=eastwest;rotatable=0;whiteSpace=wrap;html=1;" parent="xWgYPLhg4K4X3F8JjkMR-39" vertex="1">
          <mxGeometry y="360" width="680" height="30" as="geometry" />
        </mxCell>
        <mxCell id="xWgYPLhg4K4X3F8JjkMR-71" value="O utilizador pode ver um resumo do inventário por categorias" style="text;strokeColor=none;fillColor=none;align=left;verticalAlign=middle;spacingLeft=4;spacingRight=4;overflow=hidden;points=[[0,0.5],[1,0.5]];portConstraint=eastwest;rotatable=0;whiteSpace=wrap;html=1;" parent="xWgYPLhg4K4X3F8JjkMR-39" vertex="1">
          <mxGeometry y="390" width="680" height="30" as="geometry" />
        </mxCell>
        <mxCell id="7ApWwWHMCVWSrzH3Z17Y-13" value="O utilizador mudar o tema de cores da página" style="text;strokeColor=none;fillColor=none;align=left;verticalAlign=middle;spacingLeft=4;spacingRight=4;overflow=hidden;points=[[0,0.5],[1,0.5]];portConstraint=eastwest;rotatable=0;whiteSpace=wrap;html=1;" vertex="1" parent="xWgYPLhg4K4X3F8JjkMR-39">
          <mxGeometry y="420" width="680" height="30" as="geometry" />
        </mxCell>
        <mxCell id="7ApWwWHMCVWSrzH3Z17Y-12" value="O utilizador pode voltar ao topo da página" style="text;strokeColor=none;fillColor=none;align=left;verticalAlign=middle;spacingLeft=4;spacingRight=4;overflow=hidden;points=[[0,0.5],[1,0.5]];portConstraint=eastwest;rotatable=0;whiteSpace=wrap;html=1;" vertex="1" parent="xWgYPLhg4K4X3F8JjkMR-39">
          <mxGeometry y="450" width="680" height="30" as="geometry" />
        </mxCell>
        <mxCell id="7ApWwWHMCVWSrzH3Z17Y-67" value="O utilizador pode fazer logout" style="text;strokeColor=none;fillColor=none;align=left;verticalAlign=middle;spacingLeft=4;spacingRight=4;overflow=hidden;points=[[0,0.5],[1,0.5]];portConstraint=eastwest;rotatable=0;whiteSpace=wrap;html=1;" vertex="1" parent="xWgYPLhg4K4X3F8JjkMR-39">
          <mxGeometry y="480" width="680" height="30" as="geometry" />
        </mxCell>
        <mxCell id="xWgYPLhg4K4X3F8JjkMR-70" style="rounded=0;orthogonalLoop=1;jettySize=auto;html=1;entryX=0;entryY=0.5;entryDx=0;entryDy=0;endArrow=none;endFill=0;exitX=1;exitY=0.3333333333333333;exitDx=0;exitDy=0;exitPerimeter=0;" parent="1" source="xWgYPLhg4K4X3F8JjkMR-1" target="xWgYPLhg4K4X3F8JjkMR-69" edge="1">
          <mxGeometry relative="1" as="geometry">
            <mxPoint x="204" y="577" as="sourcePoint" />
            <mxPoint x="324" y="790" as="targetPoint" />
          </mxGeometry>
        </mxCell>
        <mxCell id="7ApWwWHMCVWSrzH3Z17Y-9" style="rounded=0;orthogonalLoop=1;jettySize=auto;html=1;entryX=0;entryY=0.5;entryDx=0;entryDy=0;endArrow=none;endFill=0;exitX=1;exitY=0.3333333333333333;exitDx=0;exitDy=0;exitPerimeter=0;" edge="1" parent="1" source="xWgYPLhg4K4X3F8JjkMR-1" target="7ApWwWHMCVWSrzH3Z17Y-8">
          <mxGeometry relative="1" as="geometry">
            <mxPoint x="224" y="660" as="sourcePoint" />
            <mxPoint x="324" y="910" as="targetPoint" />
          </mxGeometry>
        </mxCell>
        <mxCell id="7ApWwWHMCVWSrzH3Z17Y-11" style="rounded=0;orthogonalLoop=1;jettySize=auto;html=1;entryX=0;entryY=0.5;entryDx=0;entryDy=0;endArrow=none;endFill=0;exitX=1;exitY=0.3333333333333333;exitDx=0;exitDy=0;exitPerimeter=0;" edge="1" parent="1" source="xWgYPLhg4K4X3F8JjkMR-1" target="7ApWwWHMCVWSrzH3Z17Y-10">
          <mxGeometry relative="1" as="geometry">
            <mxPoint x="184" y="647" as="sourcePoint" />
            <mxPoint x="324" y="1030" as="targetPoint" />
          </mxGeometry>
        </mxCell>
        <mxCell id="7ApWwWHMCVWSrzH3Z17Y-14" value="Levantamento de Requisitos Não Funcionais" style="swimlane;fontStyle=0;childLayout=stackLayout;horizontal=1;startSize=30;horizontalStack=0;resizeParent=1;resizeParentMax=0;resizeLast=0;collapsible=1;marginBottom=0;whiteSpace=wrap;html=1;" vertex="1" parent="1">
          <mxGeometry x="-760" y="720" width="680" height="420" as="geometry" />
        </mxCell>
        <mxCell id="7ApWwWHMCVWSrzH3Z17Y-31" value="A base de dados deve ser desenvolvida em MySQL" style="text;strokeColor=none;fillColor=none;align=left;verticalAlign=middle;spacingLeft=4;spacingRight=4;overflow=hidden;points=[[0,0.5],[1,0.5]];portConstraint=eastwest;rotatable=0;whiteSpace=wrap;html=1;" vertex="1" parent="7ApWwWHMCVWSrzH3Z17Y-14">
          <mxGeometry y="30" width="680" height="30" as="geometry" />
        </mxCell>
        <mxCell id="7ApWwWHMCVWSrzH3Z17Y-32" value="A API de acesso à base de dados deve ser desenvolvida em Express (Node JS)" style="text;strokeColor=none;fillColor=none;align=left;verticalAlign=middle;spacingLeft=4;spacingRight=4;overflow=hidden;points=[[0,0.5],[1,0.5]];portConstraint=eastwest;rotatable=0;whiteSpace=wrap;html=1;" vertex="1" parent="7ApWwWHMCVWSrzH3Z17Y-14">
          <mxGeometry y="60" width="680" height="30" as="geometry" />
        </mxCell>
        <mxCell id="7ApWwWHMCVWSrzH3Z17Y-33" value="A página web deve ser desenvolvida em HTML/CSS/Bootstrap/JavaScript" style="text;strokeColor=none;fillColor=none;align=left;verticalAlign=middle;spacingLeft=4;spacingRight=4;overflow=hidden;points=[[0,0.5],[1,0.5]];portConstraint=eastwest;rotatable=0;whiteSpace=wrap;html=1;" vertex="1" parent="7ApWwWHMCVWSrzH3Z17Y-14">
          <mxGeometry y="90" width="680" height="30" as="geometry" />
        </mxCell>
        <mxCell id="7ApWwWHMCVWSrzH3Z17Y-15" value="A aplicação acede à base dados por intermédio da API para efetuar as operações solicitadas (CRUD)&amp;nbsp;" style="text;strokeColor=none;fillColor=none;align=left;verticalAlign=middle;spacingLeft=4;spacingRight=4;overflow=hidden;points=[[0,0.5],[1,0.5]];portConstraint=eastwest;rotatable=0;whiteSpace=wrap;html=1;" vertex="1" parent="7ApWwWHMCVWSrzH3Z17Y-14">
          <mxGeometry y="120" width="680" height="30" as="geometry" />
        </mxCell>
        <mxCell id="7ApWwWHMCVWSrzH3Z17Y-56" value="O visitante para fazer registo deve introduzir o email, o nome, a password, e a password repetida&amp;nbsp;" style="text;strokeColor=none;fillColor=none;align=left;verticalAlign=middle;spacingLeft=4;spacingRight=4;overflow=hidden;points=[[0,0.5],[1,0.5]];portConstraint=eastwest;rotatable=0;whiteSpace=wrap;html=1;" vertex="1" parent="7ApWwWHMCVWSrzH3Z17Y-14">
          <mxGeometry y="150" width="680" height="30" as="geometry" />
        </mxCell>
        <mxCell id="7ApWwWHMCVWSrzH3Z17Y-57" value="O visitante para fazer login deve introduzir o email e a password" style="text;strokeColor=none;fillColor=none;align=left;verticalAlign=middle;spacingLeft=4;spacingRight=4;overflow=hidden;points=[[0,0.5],[1,0.5]];portConstraint=eastwest;rotatable=0;whiteSpace=wrap;html=1;" vertex="1" parent="7ApWwWHMCVWSrzH3Z17Y-14">
          <mxGeometry y="180" width="680" height="30" as="geometry" />
        </mxCell>
        <mxCell id="7ApWwWHMCVWSrzH3Z17Y-58" value="O vistante para recuperar os dados de acesso deve introduzir o seu email" style="text;strokeColor=none;fillColor=none;align=left;verticalAlign=middle;spacingLeft=4;spacingRight=4;overflow=hidden;points=[[0,0.5],[1,0.5]];portConstraint=eastwest;rotatable=0;whiteSpace=wrap;html=1;" vertex="1" parent="7ApWwWHMCVWSrzH3Z17Y-14">
          <mxGeometry y="210" width="680" height="30" as="geometry" />
        </mxCell>
        <mxCell id="7ApWwWHMCVWSrzH3Z17Y-38" value="O utilizador após visualizar/pesquisar os artigos do inventário, pode atualizar ou apagar qualquer artigo" style="text;strokeColor=none;fillColor=none;align=left;verticalAlign=middle;spacingLeft=4;spacingRight=4;overflow=hidden;points=[[0,0.5],[1,0.5]];portConstraint=eastwest;rotatable=0;whiteSpace=wrap;html=1;" vertex="1" parent="7ApWwWHMCVWSrzH3Z17Y-14">
          <mxGeometry y="240" width="680" height="30" as="geometry" />
        </mxCell>
        <mxCell id="7ApWwWHMCVWSrzH3Z17Y-53" value="O utilizador após visualizar as categorias do inventário, pode atualizar ou apagar qualquer categoria" style="text;strokeColor=none;fillColor=none;align=left;verticalAlign=middle;spacingLeft=4;spacingRight=4;overflow=hidden;points=[[0,0.5],[1,0.5]];portConstraint=eastwest;rotatable=0;whiteSpace=wrap;html=1;" vertex="1" parent="7ApWwWHMCVWSrzH3Z17Y-14">
          <mxGeometry y="270" width="680" height="30" as="geometry" />
        </mxCell>
        <mxCell id="7ApWwWHMCVWSrzH3Z17Y-30" value="Desempenho/responsividade/fluidez do site" style="text;strokeColor=none;fillColor=none;align=left;verticalAlign=middle;spacingLeft=4;spacingRight=4;overflow=hidden;points=[[0,0.5],[1,0.5]];portConstraint=eastwest;rotatable=0;whiteSpace=wrap;html=1;" vertex="1" parent="7ApWwWHMCVWSrzH3Z17Y-14">
          <mxGeometry y="300" width="680" height="30" as="geometry" />
        </mxCell>
        <mxCell id="7ApWwWHMCVWSrzH3Z17Y-28" value="Design Responsivo adaptando-se a dispositivos móveis" style="text;strokeColor=none;fillColor=none;align=left;verticalAlign=middle;spacingLeft=4;spacingRight=4;overflow=hidden;points=[[0,0.5],[1,0.5]];portConstraint=eastwest;rotatable=0;whiteSpace=wrap;html=1;" vertex="1" parent="7ApWwWHMCVWSrzH3Z17Y-14">
          <mxGeometry y="330" width="680" height="30" as="geometry" />
        </mxCell>
        <mxCell id="7ApWwWHMCVWSrzH3Z17Y-34" value="UI/UX - A usabilidade deve ser intuitiva" style="text;strokeColor=none;fillColor=none;align=left;verticalAlign=middle;spacingLeft=4;spacingRight=4;overflow=hidden;points=[[0,0.5],[1,0.5]];portConstraint=eastwest;rotatable=0;whiteSpace=wrap;html=1;" vertex="1" parent="7ApWwWHMCVWSrzH3Z17Y-14">
          <mxGeometry y="360" width="680" height="30" as="geometry" />
        </mxCell>
        <mxCell id="7ApWwWHMCVWSrzH3Z17Y-27" value="Compatibilidade com browsers distintos" style="text;strokeColor=none;fillColor=none;align=left;verticalAlign=middle;spacingLeft=4;spacingRight=4;overflow=hidden;points=[[0,0.5],[1,0.5]];portConstraint=eastwest;rotatable=0;whiteSpace=wrap;html=1;" vertex="1" parent="7ApWwWHMCVWSrzH3Z17Y-14">
          <mxGeometry y="390" width="680" height="30" as="geometry" />
        </mxCell>
        <mxCell id="7ApWwWHMCVWSrzH3Z17Y-42" style="rounded=0;orthogonalLoop=1;jettySize=auto;html=1;entryX=0;entryY=0.5;entryDx=0;entryDy=0;endArrow=none;endFill=0;exitX=1;exitY=0.3333333333333333;exitDx=0;exitDy=0;exitPerimeter=0;" edge="1" parent="1" source="7ApWwWHMCVWSrzH3Z17Y-39" target="7ApWwWHMCVWSrzH3Z17Y-40">
          <mxGeometry relative="1" as="geometry">
            <mxPoint x="194" y="657" as="sourcePoint" />
            <mxPoint x="324" y="430" as="targetPoint" />
          </mxGeometry>
        </mxCell>
        <mxCell id="7ApWwWHMCVWSrzH3Z17Y-45" style="rounded=0;orthogonalLoop=1;jettySize=auto;html=1;entryX=0;entryY=0.5;entryDx=0;entryDy=0;endArrow=none;endFill=0;exitX=1;exitY=0.3333333333333333;exitDx=0;exitDy=0;exitPerimeter=0;" edge="1" parent="1" source="7ApWwWHMCVWSrzH3Z17Y-39" target="7ApWwWHMCVWSrzH3Z17Y-44">
          <mxGeometry relative="1" as="geometry">
            <mxPoint x="184" y="290" as="sourcePoint" />
            <mxPoint x="324" y="290" as="targetPoint" />
          </mxGeometry>
        </mxCell>
        <mxCell id="7ApWwWHMCVWSrzH3Z17Y-61" value="&lt;h1 style=&quot;&quot;&gt;Levantamento de Requisitos&lt;br&gt;&lt;/h1&gt;&lt;p&gt;&lt;/p&gt;&lt;div style=&quot;&quot;&gt;&lt;span style=&quot;background-color: initial;&quot;&gt;Stakeholders:&lt;/span&gt;&lt;/div&gt;&lt;span style=&quot;&quot;&gt;&lt;div style=&quot;&quot;&gt;&lt;span style=&quot;background-color: initial; white-space: pre;&quot;&gt;&#x9;&lt;/span&gt;&lt;span style=&quot;background-color: initial;&quot;&gt;- Orientadora do Projeto&lt;/span&gt;&lt;/div&gt;&lt;/span&gt;&lt;span style=&quot;&quot;&gt;&lt;div style=&quot;&quot;&gt;&lt;span style=&quot;background-color: initial; white-space: pre;&quot;&gt;&#x9;&lt;/span&gt;&lt;span style=&quot;background-color: initial;&quot;&gt;- Project Owner (Membro da ItCenter)&lt;/span&gt;&lt;/div&gt;&lt;/span&gt;&lt;span style=&quot;border-color: var(--border-color);&quot;&gt;&lt;div style=&quot;&quot;&gt;&lt;span style=&quot;background-color: initial; border-color: var(--border-color);&quot;&gt;&amp;nbsp; &amp;nbsp;&amp;nbsp;&lt;span style=&quot;white-space: pre;&quot;&gt;&#x9;&lt;/span&gt;&lt;/span&gt;&lt;span style=&quot;background-color: initial;&quot;&gt;-&amp;nbsp;Equipa de Desenvolvimento&lt;/span&gt;&lt;/div&gt;&lt;/span&gt;&lt;span style=&quot;border-color: var(--border-color);&quot;&gt;&lt;div style=&quot;&quot;&gt;&lt;span style=&quot;background-color: initial; border-color: var(--border-color);&quot;&gt;&amp;nbsp; &amp;nbsp;&amp;nbsp;&lt;span style=&quot;white-space: pre;&quot;&gt;&#x9;&lt;/span&gt;&lt;/span&gt;&lt;span style=&quot;background-color: initial;&quot;&gt;- Cliente (Empresa que necessita de um software de controlo de inventário)&lt;/span&gt;&lt;/div&gt;&lt;/span&gt;&lt;span style=&quot;border-color: var(--border-color);&quot;&gt;&lt;div style=&quot;&quot;&gt;&lt;span style=&quot;background-color: initial; border-color: var(--border-color);&quot;&gt;&amp;nbsp; &amp;nbsp;&amp;nbsp;&lt;span style=&quot;white-space: pre;&quot;&gt;&#x9;&lt;/span&gt;&lt;/span&gt;&lt;span style=&quot;background-color: initial;&quot;&gt;-&amp;nbsp;Utilizadores Finais&lt;/span&gt;&lt;/div&gt;&lt;/span&gt;&lt;p&gt;&lt;/p&gt;" style="text;html=1;strokeColor=none;fillColor=none;spacing=5;spacingTop=-20;whiteSpace=wrap;overflow=hidden;rounded=0;" vertex="1" parent="1">
          <mxGeometry x="-760" y="40" width="680" height="120" as="geometry" />
        </mxCell>
        <mxCell id="7ApWwWHMCVWSrzH3Z17Y-62" value="&lt;h1&gt;Diagrama de Casos de Uso&lt;/h1&gt;" style="text;html=1;strokeColor=none;fillColor=none;spacing=5;spacingTop=-20;whiteSpace=wrap;overflow=hidden;rounded=0;align=center;" vertex="1" parent="1">
          <mxGeometry x="40" y="40" width="760" height="50" as="geometry" />
        </mxCell>
        <mxCell id="7ApWwWHMCVWSrzH3Z17Y-64" value="" style="edgeStyle=orthogonalEdgeStyle;rounded=0;orthogonalLoop=1;jettySize=auto;html=1;exitX=0.5;exitY=0;exitDx=0;exitDy=0;exitPerimeter=0;endArrow=block;endFill=0;startSize=10;endSize=10;" edge="1" parent="1" source="xWgYPLhg4K4X3F8JjkMR-1">
          <mxGeometry relative="1" as="geometry">
            <mxPoint x="84" y="340" as="targetPoint" />
            <mxPoint x="84" y="760" as="sourcePoint" />
          </mxGeometry>
        </mxCell>
        <mxCell id="7ApWwWHMCVWSrzH3Z17Y-39" value="Visitante" style="shape=umlActor;verticalLabelPosition=bottom;verticalAlign=top;html=1;outlineConnect=0;" vertex="1" parent="1">
          <mxGeometry x="64" y="230" width="40" height="80" as="geometry" />
        </mxCell>
        <mxCell id="7ApWwWHMCVWSrzH3Z17Y-70" style="rounded=0;orthogonalLoop=1;jettySize=auto;html=1;entryX=0;entryY=0.5;entryDx=0;entryDy=0;endArrow=none;endFill=0;" edge="1" parent="1" target="7ApWwWHMCVWSrzH3Z17Y-69">
          <mxGeometry relative="1" as="geometry">
            <mxPoint x="104" y="786" as="sourcePoint" />
            <mxPoint x="254" y="1010" as="targetPoint" />
          </mxGeometry>
        </mxCell>
        <mxCell id="7ApWwWHMCVWSrzH3Z17Y-73" style="rounded=0;orthogonalLoop=1;jettySize=auto;html=1;entryX=0;entryY=0.5;entryDx=0;entryDy=0;endArrow=none;endFill=0;" edge="1" parent="1" target="7ApWwWHMCVWSrzH3Z17Y-71">
          <mxGeometry relative="1" as="geometry">
            <mxPoint x="105" y="787" as="sourcePoint" />
            <mxPoint x="254" y="710" as="targetPoint" />
          </mxGeometry>
        </mxCell>
        <mxCell id="7ApWwWHMCVWSrzH3Z17Y-74" value="&lt;h1&gt;Diagrama de Sequência - Sistema de Login&lt;/h1&gt;" style="text;html=1;strokeColor=none;fillColor=none;spacing=5;spacingTop=-20;whiteSpace=wrap;overflow=hidden;rounded=0;align=center;" vertex="1" parent="1">
          <mxGeometry x="870" y="50" width="760" height="50" as="geometry" />
        </mxCell>
        <mxCell id="7ApWwWHMCVWSrzH3Z17Y-75" value="sd Sistema de Login (Iniciar Sessão)" style="shape=umlFrame;whiteSpace=wrap;html=1;pointerEvents=0;fontSize=16;width=230;height=50;" vertex="1" parent="1">
          <mxGeometry x="870" y="110" width="740" height="1010" as="geometry" />
        </mxCell>
        <mxCell id="7ApWwWHMCVWSrzH3Z17Y-83" value="&lt;br&gt;&lt;br&gt;&lt;br&gt;&lt;br&gt;&lt;span style=&quot;background-color: rgb(255, 255, 255);&quot;&gt;Visitante&lt;/span&gt;" style="shape=umlLifeline;perimeter=lifelinePerimeter;whiteSpace=wrap;html=1;container=1;dropTarget=0;collapsible=0;recursiveResize=0;outlineConnect=0;portConstraint=eastwest;newEdgeStyle={&quot;curved&quot;:0,&quot;rounded&quot;:0};participant=umlActor;" vertex="1" parent="1">
          <mxGeometry x="930" y="200" width="20" height="820" as="geometry" />
        </mxCell>
        <mxCell id="7ApWwWHMCVWSrzH3Z17Y-84" value="Aplicação" style="shape=umlLifeline;perimeter=lifelinePerimeter;whiteSpace=wrap;html=1;container=1;dropTarget=0;collapsible=0;recursiveResize=0;outlineConnect=0;portConstraint=eastwest;newEdgeStyle={&quot;curved&quot;:0,&quot;rounded&quot;:0};" vertex="1" parent="1">
          <mxGeometry x="1080" y="200" width="100" height="820" as="geometry" />
        </mxCell>
        <mxCell id="7ApWwWHMCVWSrzH3Z17Y-87" value="" style="html=1;points=[[0,0,0,0,5],[0,1,0,0,-5],[1,0,0,0,5],[1,1,0,0,-5]];perimeter=orthogonalPerimeter;outlineConnect=0;targetShapes=umlLifeline;portConstraint=eastwest;newEdgeStyle={&quot;curved&quot;:0,&quot;rounded&quot;:0};" vertex="1" parent="7ApWwWHMCVWSrzH3Z17Y-84">
          <mxGeometry x="45" y="60" width="10" height="680" as="geometry" />
        </mxCell>
        <mxCell id="7ApWwWHMCVWSrzH3Z17Y-85" value="Utilizador" style="shape=umlLifeline;perimeter=lifelinePerimeter;whiteSpace=wrap;html=1;container=1;dropTarget=0;collapsible=0;recursiveResize=0;outlineConnect=0;portConstraint=eastwest;newEdgeStyle={&quot;curved&quot;:0,&quot;rounded&quot;:0};" vertex="1" parent="1">
          <mxGeometry x="1280" y="200" width="100" height="810" as="geometry" />
        </mxCell>
        <mxCell id="7ApWwWHMCVWSrzH3Z17Y-94" value="" style="html=1;points=[[0,0,0,0,5],[0,1,0,0,-5],[1,0,0,0,5],[1,1,0,0,-5]];perimeter=orthogonalPerimeter;outlineConnect=0;targetShapes=umlLifeline;portConstraint=eastwest;newEdgeStyle={&quot;curved&quot;:0,&quot;rounded&quot;:0};" vertex="1" parent="7ApWwWHMCVWSrzH3Z17Y-85">
          <mxGeometry x="45" y="180" width="10" height="610" as="geometry" />
        </mxCell>
        <mxCell id="7ApWwWHMCVWSrzH3Z17Y-86" value="Base de Dados" style="shape=umlLifeline;perimeter=lifelinePerimeter;whiteSpace=wrap;html=1;container=1;dropTarget=0;collapsible=0;recursiveResize=0;outlineConnect=0;portConstraint=eastwest;newEdgeStyle={&quot;curved&quot;:0,&quot;rounded&quot;:0};" vertex="1" parent="1">
          <mxGeometry x="1480" y="200" width="100" height="810" as="geometry" />
        </mxCell>
        <mxCell id="7ApWwWHMCVWSrzH3Z17Y-95" value="" style="html=1;points=[[0,0,0,0,5],[0,1,0,0,-5],[1,0,0,0,5],[1,1,0,0,-5]];perimeter=orthogonalPerimeter;outlineConnect=0;targetShapes=umlLifeline;portConstraint=eastwest;newEdgeStyle={&quot;curved&quot;:0,&quot;rounded&quot;:0};" vertex="1" parent="7ApWwWHMCVWSrzH3Z17Y-86">
          <mxGeometry x="45" y="230" width="10" height="90" as="geometry" />
        </mxCell>
        <mxCell id="7ApWwWHMCVWSrzH3Z17Y-88" value="Preencher Dados de Login" style="html=1;verticalAlign=bottom;endArrow=block;curved=0;rounded=0;" edge="1" parent="1" source="7ApWwWHMCVWSrzH3Z17Y-83" target="7ApWwWHMCVWSrzH3Z17Y-87">
          <mxGeometry x="0.0011" width="80" relative="1" as="geometry">
            <mxPoint x="940" y="320" as="sourcePoint" />
            <mxPoint x="1020" y="320" as="targetPoint" />
            <Array as="points">
              <mxPoint x="1030" y="290" />
            </Array>
            <mxPoint as="offset" />
          </mxGeometry>
        </mxCell>
        <mxCell id="7ApWwWHMCVWSrzH3Z17Y-91" value="Clicar no Botão de Login" style="html=1;verticalAlign=bottom;endArrow=block;curved=0;rounded=0;" edge="1" parent="1">
          <mxGeometry x="0.0011" width="80" relative="1" as="geometry">
            <mxPoint x="940" y="340" as="sourcePoint" />
            <mxPoint x="1126" y="340" as="targetPoint" />
            <Array as="points" />
            <mxPoint as="offset" />
          </mxGeometry>
        </mxCell>
        <mxCell id="7ApWwWHMCVWSrzH3Z17Y-93" value="Verificar Login: fazerLogin()&amp;nbsp;" style="html=1;verticalAlign=bottom;endArrow=block;curved=0;rounded=0;" edge="1" parent="1" target="7ApWwWHMCVWSrzH3Z17Y-94">
          <mxGeometry x="0.0025" width="80" relative="1" as="geometry">
            <mxPoint x="1135" y="390" as="sourcePoint" />
            <mxPoint x="1324" y="389" as="targetPoint" />
            <mxPoint as="offset" />
          </mxGeometry>
        </mxCell>
        <mxCell id="7ApWwWHMCVWSrzH3Z17Y-96" value="Verificar Dados de Login" style="html=1;verticalAlign=bottom;endArrow=block;curved=0;rounded=0;" edge="1" parent="1" source="7ApWwWHMCVWSrzH3Z17Y-94" target="7ApWwWHMCVWSrzH3Z17Y-95">
          <mxGeometry width="80" relative="1" as="geometry">
            <mxPoint x="1370" y="440" as="sourcePoint" />
            <mxPoint x="1500" y="440" as="targetPoint" />
            <Array as="points">
              <mxPoint x="1490" y="440" />
            </Array>
          </mxGeometry>
        </mxCell>
        <mxCell id="7ApWwWHMCVWSrzH3Z17Y-97" value="Resposta" style="html=1;verticalAlign=bottom;endArrow=open;dashed=1;endSize=8;curved=0;rounded=0;" edge="1" parent="1">
          <mxGeometry relative="1" as="geometry">
            <mxPoint x="1525" y="510" as="sourcePoint" />
            <mxPoint x="1335" y="510" as="targetPoint" />
          </mxGeometry>
        </mxCell>
        <mxCell id="7ApWwWHMCVWSrzH3Z17Y-98" value="alt" style="shape=umlFrame;whiteSpace=wrap;html=1;pointerEvents=0;" vertex="1" parent="1">
          <mxGeometry x="960" y="560" width="410" height="480" as="geometry" />
        </mxCell>
        <mxCell id="7ApWwWHMCVWSrzH3Z17Y-99" value="[se Sucesso]" style="text;html=1;align=center;verticalAlign=middle;resizable=0;points=[];autosize=1;strokeColor=none;fillColor=none;" vertex="1" parent="1">
          <mxGeometry x="960" y="590" width="90" height="30" as="geometry" />
        </mxCell>
        <mxCell id="7ApWwWHMCVWSrzH3Z17Y-100" value="[senão] (se Erro)" style="text;html=1;align=center;verticalAlign=middle;resizable=0;points=[];autosize=1;strokeColor=none;fillColor=none;" vertex="1" parent="1">
          <mxGeometry x="960" y="750" width="110" height="30" as="geometry" />
        </mxCell>
        <mxCell id="7ApWwWHMCVWSrzH3Z17Y-102" value="Resposta - Sucesso" style="html=1;verticalAlign=bottom;endArrow=open;dashed=1;endSize=8;curved=0;rounded=0;" edge="1" parent="1">
          <mxGeometry relative="1" as="geometry">
            <mxPoint x="1325" y="584" as="sourcePoint" />
            <mxPoint x="1135" y="584" as="targetPoint" />
          </mxGeometry>
        </mxCell>
        <mxCell id="7ApWwWHMCVWSrzH3Z17Y-103" value="Resposta - Erro" style="html=1;verticalAlign=bottom;endArrow=open;dashed=1;endSize=8;curved=0;rounded=0;" edge="1" parent="1">
          <mxGeometry relative="1" as="geometry">
            <mxPoint x="1326" y="772" as="sourcePoint" />
            <mxPoint x="1136" y="772" as="targetPoint" />
          </mxGeometry>
        </mxCell>
        <mxCell id="7ApWwWHMCVWSrzH3Z17Y-109" value="Voltar ao início do diagrama" style="shape=note;whiteSpace=wrap;html=1;backgroundOutline=1;darkOpacity=0.05;size=21;" vertex="1" parent="1">
          <mxGeometry x="1175" y="930" width="130" height="70" as="geometry" />
        </mxCell>
        <mxCell id="7ApWwWHMCVWSrzH3Z17Y-116" value="" style="edgeStyle=none;orthogonalLoop=1;jettySize=auto;html=1;rounded=0;exitX=0;exitY=0.403;exitDx=0;exitDy=0;exitPerimeter=0;" edge="1" parent="1">
          <mxGeometry width="100" relative="1" as="geometry">
            <mxPoint x="1175" y="964.57" as="sourcePoint" />
            <mxPoint x="1128.6666666666665" y="964.57" as="targetPoint" />
            <Array as="points" />
          </mxGeometry>
        </mxCell>
        <mxCell id="7ApWwWHMCVWSrzH3Z17Y-117" value="Feedback" style="html=1;verticalAlign=bottom;endArrow=open;dashed=1;endSize=8;curved=0;rounded=0;" edge="1" parent="1">
          <mxGeometry relative="1" as="geometry">
            <mxPoint x="1125" y="929.13" as="sourcePoint" />
            <mxPoint x="940" y="929.13" as="targetPoint" />
          </mxGeometry>
        </mxCell>
        <mxCell id="7ApWwWHMCVWSrzH3Z17Y-118" value="" style="html=1;points=[[0,0,0,0,5],[0,1,0,0,-5],[1,0,0,0,5],[1,1,0,0,-5]];perimeter=orthogonalPerimeter;outlineConnect=0;targetShapes=umlLifeline;portConstraint=eastwest;newEdgeStyle={&quot;curved&quot;:0,&quot;rounded&quot;:0};" vertex="1" parent="1">
          <mxGeometry x="1130" y="850.04" width="10" height="40" as="geometry" />
        </mxCell>
        <mxCell id="7ApWwWHMCVWSrzH3Z17Y-119" value="Tratar erro (Mostrar mensagem&lt;br style=&quot;border-color: var(--border-color);&quot;&gt;de erro)" style="html=1;align=left;spacingLeft=2;endArrow=block;rounded=0;edgeStyle=orthogonalEdgeStyle;curved=0;rounded=0;" edge="1" target="7ApWwWHMCVWSrzH3Z17Y-118" parent="1">
          <mxGeometry relative="1" as="geometry">
            <mxPoint x="1135" y="830.04" as="sourcePoint" />
            <Array as="points">
              <mxPoint x="1165" y="860.04" />
            </Array>
          </mxGeometry>
        </mxCell>
        <mxCell id="7ApWwWHMCVWSrzH3Z17Y-101" value="" style="edgeStyle=none;orthogonalLoop=1;jettySize=auto;html=1;rounded=0;exitX=0;exitY=0.498;exitDx=0;exitDy=0;exitPerimeter=0;entryX=1.006;entryY=0.497;entryDx=0;entryDy=0;entryPerimeter=0;endArrow=none;endFill=0;dashed=1;dashPattern=8 8;" edge="1" parent="1">
          <mxGeometry width="100" relative="1" as="geometry">
            <mxPoint x="960" y="740.2800000000001" as="sourcePoint" />
            <mxPoint x="1372.46" y="740.0000000000001" as="targetPoint" />
            <Array as="points" />
          </mxGeometry>
        </mxCell>
        <mxCell id="7ApWwWHMCVWSrzH3Z17Y-120" value="" style="html=1;points=[[0,0,0,0,5],[0,1,0,0,-5],[1,0,0,0,5],[1,1,0,0,-5]];perimeter=orthogonalPerimeter;outlineConnect=0;targetShapes=umlLifeline;portConstraint=eastwest;newEdgeStyle={&quot;curved&quot;:0,&quot;rounded&quot;:0};" vertex="1" parent="1">
          <mxGeometry x="1130" y="660.04" width="10" height="40" as="geometry" />
        </mxCell>
        <mxCell id="7ApWwWHMCVWSrzH3Z17Y-121" value="Ir para página inicial&lt;br style=&quot;border-color: var(--border-color);&quot;&gt;do inventário" style="html=1;align=left;spacingLeft=2;endArrow=block;rounded=0;edgeStyle=orthogonalEdgeStyle;curved=0;rounded=0;" edge="1" target="7ApWwWHMCVWSrzH3Z17Y-120" parent="1">
          <mxGeometry relative="1" as="geometry">
            <mxPoint x="1135" y="640.04" as="sourcePoint" />
            <Array as="points">
              <mxPoint x="1165" y="670.04" />
            </Array>
          </mxGeometry>
        </mxCell>
        <mxCell id="7ApWwWHMCVWSrzH3Z17Y-122" value="&lt;h1&gt;Diagrama de Sequência - Sistema de Adicionar Categoria&lt;/h1&gt;" style="text;html=1;strokeColor=none;fillColor=none;spacing=5;spacingTop=-20;whiteSpace=wrap;overflow=hidden;rounded=0;align=center;" vertex="1" parent="1">
          <mxGeometry x="1688" y="50" width="760" height="50" as="geometry" />
        </mxCell>
        <mxCell id="7ApWwWHMCVWSrzH3Z17Y-123" value="sd Sistema de Adicionar Categoria" style="shape=umlFrame;whiteSpace=wrap;html=1;pointerEvents=0;fontSize=16;width=230;height=50;" vertex="1" parent="1">
          <mxGeometry x="1688" y="110" width="740" height="1010" as="geometry" />
        </mxCell>
        <mxCell id="7ApWwWHMCVWSrzH3Z17Y-124" value="&lt;br&gt;&lt;br&gt;&lt;br&gt;&lt;br&gt;&lt;span style=&quot;background-color: rgb(255, 255, 255);&quot;&gt;Utilizador&lt;/span&gt;" style="shape=umlLifeline;perimeter=lifelinePerimeter;whiteSpace=wrap;html=1;container=1;dropTarget=0;collapsible=0;recursiveResize=0;outlineConnect=0;portConstraint=eastwest;newEdgeStyle={&quot;curved&quot;:0,&quot;rounded&quot;:0};participant=umlActor;" vertex="1" parent="1">
          <mxGeometry x="1750" y="200" width="20" height="820" as="geometry" />
        </mxCell>
        <mxCell id="7ApWwWHMCVWSrzH3Z17Y-125" value="Aplicação" style="shape=umlLifeline;perimeter=lifelinePerimeter;whiteSpace=wrap;html=1;container=1;dropTarget=0;collapsible=0;recursiveResize=0;outlineConnect=0;portConstraint=eastwest;newEdgeStyle={&quot;curved&quot;:0,&quot;rounded&quot;:0};" vertex="1" parent="1">
          <mxGeometry x="1898" y="200" width="100" height="820" as="geometry" />
        </mxCell>
        <mxCell id="7ApWwWHMCVWSrzH3Z17Y-126" value="" style="html=1;points=[[0,0,0,0,5],[0,1,0,0,-5],[1,0,0,0,5],[1,1,0,0,-5]];perimeter=orthogonalPerimeter;outlineConnect=0;targetShapes=umlLifeline;portConstraint=eastwest;newEdgeStyle={&quot;curved&quot;:0,&quot;rounded&quot;:0};" vertex="1" parent="7ApWwWHMCVWSrzH3Z17Y-125">
          <mxGeometry x="45" y="60" width="10" height="680" as="geometry" />
        </mxCell>
        <mxCell id="7ApWwWHMCVWSrzH3Z17Y-127" value="Base de Dados" style="shape=umlLifeline;perimeter=lifelinePerimeter;whiteSpace=wrap;html=1;container=1;dropTarget=0;collapsible=0;recursiveResize=0;outlineConnect=0;portConstraint=eastwest;newEdgeStyle={&quot;curved&quot;:0,&quot;rounded&quot;:0};" vertex="1" parent="1">
          <mxGeometry x="2098" y="200" width="100" height="810" as="geometry" />
        </mxCell>
        <mxCell id="7ApWwWHMCVWSrzH3Z17Y-128" value="" style="html=1;points=[[0,0,0,0,5],[0,1,0,0,-5],[1,0,0,0,5],[1,1,0,0,-5]];perimeter=orthogonalPerimeter;outlineConnect=0;targetShapes=umlLifeline;portConstraint=eastwest;newEdgeStyle={&quot;curved&quot;:0,&quot;rounded&quot;:0};" vertex="1" parent="7ApWwWHMCVWSrzH3Z17Y-127">
          <mxGeometry x="45" y="260" width="10" height="270" as="geometry" />
        </mxCell>
        <mxCell id="7ApWwWHMCVWSrzH3Z17Y-131" value="Entrar na página Categorias" style="html=1;verticalAlign=bottom;endArrow=block;curved=0;rounded=0;" edge="1" parent="1" source="7ApWwWHMCVWSrzH3Z17Y-124" target="7ApWwWHMCVWSrzH3Z17Y-126">
          <mxGeometry x="0.0034" width="80" relative="1" as="geometry">
            <mxPoint x="1758" y="320" as="sourcePoint" />
            <mxPoint x="1838" y="320" as="targetPoint" />
            <Array as="points">
              <mxPoint x="1848" y="290" />
            </Array>
            <mxPoint as="offset" />
          </mxGeometry>
        </mxCell>
        <mxCell id="7ApWwWHMCVWSrzH3Z17Y-132" value="Preencher formulário para&lt;br&gt;adicionar categoria" style="html=1;verticalAlign=bottom;endArrow=block;curved=0;rounded=0;" edge="1" parent="1">
          <mxGeometry x="0.0036" width="80" relative="1" as="geometry">
            <mxPoint x="1758" y="350" as="sourcePoint" />
            <mxPoint x="1944" y="350" as="targetPoint" />
            <Array as="points" />
            <mxPoint as="offset" />
          </mxGeometry>
        </mxCell>
        <mxCell id="7ApWwWHMCVWSrzH3Z17Y-133" value="Adicinar Categoria:&lt;br&gt;adicionarCategoria()" style="html=1;verticalAlign=bottom;endArrow=block;curved=0;rounded=0;" edge="1" parent="1">
          <mxGeometry x="0.0025" width="80" relative="1" as="geometry">
            <mxPoint x="1953" y="470" as="sourcePoint" />
            <mxPoint x="2143" y="470" as="targetPoint" />
            <mxPoint as="offset" />
          </mxGeometry>
        </mxCell>
        <mxCell id="7ApWwWHMCVWSrzH3Z17Y-136" value="alt" style="shape=umlFrame;whiteSpace=wrap;html=1;pointerEvents=0;" vertex="1" parent="1">
          <mxGeometry x="1778" y="540" width="410" height="270" as="geometry" />
        </mxCell>
        <mxCell id="7ApWwWHMCVWSrzH3Z17Y-137" value="[se Sucesso]" style="text;html=1;align=center;verticalAlign=middle;resizable=0;points=[];autosize=1;strokeColor=none;fillColor=none;" vertex="1" parent="1">
          <mxGeometry x="1778" y="580" width="90" height="30" as="geometry" />
        </mxCell>
        <mxCell id="7ApWwWHMCVWSrzH3Z17Y-138" value="[senão] (se Erro)" style="text;html=1;align=center;verticalAlign=middle;resizable=0;points=[];autosize=1;strokeColor=none;fillColor=none;" vertex="1" parent="1">
          <mxGeometry x="1778" y="690" width="110" height="30" as="geometry" />
        </mxCell>
        <mxCell id="7ApWwWHMCVWSrzH3Z17Y-139" value="Resposta - Sucesso" style="html=1;verticalAlign=bottom;endArrow=open;dashed=1;endSize=8;curved=0;rounded=0;" edge="1" parent="1">
          <mxGeometry relative="1" as="geometry">
            <mxPoint x="2143" y="580" as="sourcePoint" />
            <mxPoint x="1953" y="580" as="targetPoint" />
          </mxGeometry>
        </mxCell>
        <mxCell id="7ApWwWHMCVWSrzH3Z17Y-140" value="Resposta - Erro" style="html=1;verticalAlign=bottom;endArrow=open;dashed=1;endSize=8;curved=0;rounded=0;" edge="1" parent="1">
          <mxGeometry relative="1" as="geometry">
            <mxPoint x="2143" y="719.49" as="sourcePoint" />
            <mxPoint x="1953" y="719.49" as="targetPoint" />
          </mxGeometry>
        </mxCell>
        <mxCell id="7ApWwWHMCVWSrzH3Z17Y-141" value="Voltar ao início do diagrama" style="shape=note;whiteSpace=wrap;html=1;backgroundOutline=1;darkOpacity=0.05;size=21;" vertex="1" parent="1">
          <mxGeometry x="1993" y="930" width="130" height="70" as="geometry" />
        </mxCell>
        <mxCell id="7ApWwWHMCVWSrzH3Z17Y-142" value="" style="edgeStyle=none;orthogonalLoop=1;jettySize=auto;html=1;rounded=0;exitX=0;exitY=0.403;exitDx=0;exitDy=0;exitPerimeter=0;" edge="1" parent="1">
          <mxGeometry width="100" relative="1" as="geometry">
            <mxPoint x="1993" y="964.57" as="sourcePoint" />
            <mxPoint x="1946.6666666666665" y="964.57" as="targetPoint" />
            <Array as="points" />
          </mxGeometry>
        </mxCell>
        <mxCell id="7ApWwWHMCVWSrzH3Z17Y-144" value="" style="html=1;points=[[0,0,0,0,5],[0,1,0,0,-5],[1,0,0,0,5],[1,1,0,0,-5]];perimeter=orthogonalPerimeter;outlineConnect=0;targetShapes=umlLifeline;portConstraint=eastwest;newEdgeStyle={&quot;curved&quot;:0,&quot;rounded&quot;:0};" vertex="1" parent="1">
          <mxGeometry x="1948" y="850.04" width="10" height="40" as="geometry" />
        </mxCell>
        <mxCell id="7ApWwWHMCVWSrzH3Z17Y-145" value="Limpar o Formulário" style="html=1;align=left;spacingLeft=2;endArrow=block;rounded=0;edgeStyle=orthogonalEdgeStyle;curved=0;rounded=0;" edge="1" parent="1" target="7ApWwWHMCVWSrzH3Z17Y-144">
          <mxGeometry relative="1" as="geometry">
            <mxPoint x="1953" y="830.04" as="sourcePoint" />
            <Array as="points">
              <mxPoint x="1983" y="860.04" />
            </Array>
          </mxGeometry>
        </mxCell>
        <mxCell id="7ApWwWHMCVWSrzH3Z17Y-146" value="" style="edgeStyle=none;orthogonalLoop=1;jettySize=auto;html=1;rounded=0;exitX=0;exitY=0.498;exitDx=0;exitDy=0;exitPerimeter=0;entryX=1.006;entryY=0.497;entryDx=0;entryDy=0;entryPerimeter=0;endArrow=none;endFill=0;dashed=1;dashPattern=8 8;" edge="1" parent="1">
          <mxGeometry width="100" relative="1" as="geometry">
            <mxPoint x="1778" y="679.9100000000001" as="sourcePoint" />
            <mxPoint x="2190.46" y="679.6300000000001" as="targetPoint" />
            <Array as="points" />
          </mxGeometry>
        </mxCell>
        <mxCell id="7ApWwWHMCVWSrzH3Z17Y-149" value="Clicar no botão submeter" style="html=1;verticalAlign=bottom;endArrow=block;curved=0;rounded=0;" edge="1" parent="1">
          <mxGeometry x="-0.0003" width="80" relative="1" as="geometry">
            <mxPoint x="1757.7592592592591" y="410" as="sourcePoint" />
            <mxPoint x="1943" y="410" as="targetPoint" />
            <Array as="points" />
            <mxPoint as="offset" />
          </mxGeometry>
        </mxCell>
        <mxCell id="7ApWwWHMCVWSrzH3Z17Y-150" value="Feedback" style="html=1;verticalAlign=bottom;endArrow=open;dashed=1;endSize=8;curved=0;rounded=0;" edge="1" parent="1">
          <mxGeometry relative="1" as="geometry">
            <mxPoint x="1943" y="640" as="sourcePoint" />
            <mxPoint x="1759.9871794871797" y="640" as="targetPoint" />
          </mxGeometry>
        </mxCell>
        <mxCell id="7ApWwWHMCVWSrzH3Z17Y-151" value="Feedback" style="html=1;verticalAlign=bottom;endArrow=open;dashed=1;endSize=8;curved=0;rounded=0;" edge="1" parent="1">
          <mxGeometry relative="1" as="geometry">
            <mxPoint x="1948" y="780" as="sourcePoint" />
            <mxPoint x="1764.9871794871797" y="780" as="targetPoint" />
          </mxGeometry>
        </mxCell>
      </root>
    </mxGraphModel>
  </diagram>
</mxfile>
